<?xml version="1.0" standalone="no"?>
<!DOCTYPE svg PUBLIC "-//W3C//DTD SVG 20010904//EN"
 "http://www.w3.org/TR/2001/REC-SVG-20010904/DTD/svg10.dtd">
<svg version="1.0" xmlns="http://www.w3.org/2000/svg"
 width="200.000000pt" height="160.000000pt" viewBox="0 0 200.000000 160.000000"
 preserveAspectRatio="xMidYMid meet">

<g transform="translate(0.000000,160.000000) scale(0.100000,-0.100000)"
fill="#000000" stroke="none">
<path d="M610 1178 c0 -2 40 -79 88 -173 l88 -170 142 -3 c78 -1 142 -5 142
-7 0 -12 -65 -135 -71 -135 -4 0 -13 16 -19 35 l-12 35 -70 0 c-41 0 -68 -4
-66 -10 8 -24 164 -320 168 -320 3 0 67 122 143 270 l138 270 -212 2 -213 3
-19 33 -19 32 249 0 248 0 38 70 38 70 -390 0 c-215 0 -391 -1 -391 -2z"/>
<path d="M445 983 c-54 -103 -117 -225 -141 -270 -24 -46 -44 -85 -44 -88 0
-3 96 -5 214 -5 l214 0 16 -25 c9 -13 16 -27 16 -30 0 -3 -112 -5 -248 -5
l-248 0 -32 -65 c-18 -36 -32 -68 -32 -70 0 -3 173 -5 385 -5 212 0 385 3 385
8 0 4 -38 79 -83 167 l-82 160 -148 3 -147 3 36 71 36 71 21 -36 c21 -37 21
-37 89 -37 37 0 68 2 68 4 0 5 -167 327 -173 333 -3 2 -49 -80 -102 -184z"/>
<path d="M1280 838 c-95 -183 -184 -352 -198 -375 l-24 -43 74 0 73 0 115 223
115 222 3 -222 2 -223 65 0 65 0 31 61 31 62 36 -61 37 -62 71 0 71 0 -105
201 -106 201 -33 -65 c-18 -36 -37 -68 -43 -72 -7 -4 -10 46 -10 150 l0 155
-45 90 c-25 50 -47 90 -48 90 -2 0 -82 -150 -177 -332z"/>
</g>
</svg>
